<?xml version="1.0" encoding="UTF-8"?>
<svg xmlns="http://www.w3.org/2000/svg" version="1.1" width="300" height="300" viewBox="0 0 300 300"><rect x="0" y="0" width="300" height="300" fill="#fefefe"/><g transform="scale(5.660)"><g transform="translate(4.000,4.000)"><path fill-rule="evenodd" d="M9 0L9 1L8 1L8 2L9 2L9 1L10 1L10 0ZM11 0L11 2L10 2L10 3L8 3L8 4L9 4L9 5L8 5L8 7L9 7L9 5L11 5L11 6L10 6L10 7L11 7L11 6L12 6L12 7L13 7L13 6L14 6L14 8L6 8L6 9L5 9L5 8L0 8L0 13L1 13L1 14L0 14L0 15L1 15L1 16L0 16L0 18L3 18L3 17L4 17L4 19L3 19L3 20L2 20L2 21L1 21L1 20L0 20L0 21L1 21L1 24L0 24L0 25L2 25L2 26L3 26L3 27L1 27L1 28L0 28L0 29L1 29L1 28L3 28L3 29L2 29L2 30L1 30L1 31L0 31L0 33L1 33L1 34L2 34L2 32L3 32L3 33L4 33L4 35L1 35L1 36L0 36L0 37L1 37L1 36L3 36L3 37L5 37L5 32L6 32L6 33L7 33L7 34L6 34L6 35L7 35L7 36L6 36L6 37L7 37L7 36L8 36L8 39L9 39L9 40L8 40L8 45L9 45L9 41L10 41L10 39L11 39L11 36L12 36L12 35L10 35L10 37L9 37L9 35L8 35L8 33L7 33L7 32L6 32L6 31L9 31L9 32L11 32L11 31L9 31L9 30L8 30L8 29L10 29L10 30L11 30L11 29L12 29L12 33L11 33L11 34L12 34L12 33L13 33L13 34L14 34L14 33L13 33L13 32L14 32L14 31L13 31L13 30L15 30L15 29L17 29L17 30L16 30L16 32L15 32L15 33L16 33L16 32L17 32L17 33L20 33L20 34L21 34L21 35L22 35L22 34L24 34L24 33L20 33L20 32L21 32L21 31L19 31L19 30L21 30L21 29L20 29L20 28L21 28L21 27L22 27L22 26L24 26L24 25L25 25L25 23L26 23L26 25L27 25L27 26L26 26L26 27L24 27L24 28L22 28L22 31L23 31L23 32L25 32L25 31L27 31L27 32L29 32L29 30L32 30L32 29L33 29L33 30L34 30L34 31L32 31L32 32L31 32L31 33L28 33L28 36L27 36L27 38L26 38L26 35L23 35L23 36L20 36L20 38L19 38L19 40L18 40L18 38L15 38L15 37L17 37L17 36L16 36L16 34L15 34L15 37L14 37L14 36L13 36L13 37L12 37L12 38L13 38L13 39L14 39L14 40L11 40L11 41L12 41L12 42L10 42L10 45L12 45L12 44L17 44L17 45L19 45L19 42L20 42L20 41L25 41L25 42L26 42L26 43L28 43L28 44L29 44L29 45L31 45L31 43L30 43L30 42L33 42L33 44L35 44L35 43L37 43L37 44L36 44L36 45L37 45L37 44L38 44L38 45L40 45L40 43L39 43L39 42L40 42L40 41L41 41L41 37L43 37L43 39L42 39L42 40L43 40L43 41L42 41L42 42L41 42L41 44L43 44L43 45L44 45L44 44L43 44L43 43L42 43L42 42L44 42L44 43L45 43L45 42L44 42L44 38L45 38L45 37L44 37L44 36L43 36L43 35L44 35L44 34L43 34L43 33L44 33L44 32L43 32L43 31L44 31L44 30L45 30L45 29L44 29L44 30L43 30L43 31L42 31L42 29L41 29L41 28L40 28L40 27L42 27L42 28L44 28L44 26L45 26L45 23L41 23L41 22L42 22L42 21L41 21L41 19L40 19L40 20L38 20L38 19L39 19L39 18L38 18L38 19L37 19L37 17L35 17L35 18L36 18L36 19L35 19L35 20L36 20L36 21L35 21L35 22L34 22L34 18L33 18L33 19L32 19L32 20L31 20L31 19L30 19L30 18L31 18L31 17L32 17L32 16L31 16L31 15L33 15L33 17L34 17L34 15L35 15L35 14L34 14L34 13L35 13L35 12L36 12L36 10L38 10L38 11L37 11L37 12L38 12L38 13L36 13L36 16L38 16L38 17L39 17L39 16L43 16L43 15L44 15L44 14L42 14L42 13L41 13L41 15L39 15L39 14L38 14L38 13L39 13L39 12L41 12L41 11L42 11L42 12L43 12L43 13L44 13L44 10L45 10L45 9L44 9L44 8L43 8L43 9L42 9L42 8L41 8L41 9L42 9L42 10L41 10L41 11L40 11L40 10L38 10L38 8L37 8L37 9L36 9L36 8L34 8L34 7L35 7L35 6L34 6L34 7L33 7L33 6L32 6L32 7L31 7L31 6L30 6L30 5L31 5L31 4L32 4L32 3L31 3L31 2L30 2L30 1L33 1L33 4L34 4L34 5L37 5L37 3L36 3L36 1L37 1L37 0L36 0L36 1L35 1L35 4L34 4L34 0L29 0L29 2L28 2L28 1L26 1L26 0L25 0L25 1L23 1L23 4L22 4L22 3L20 3L20 0L19 0L19 1L18 1L18 0L17 0L17 2L15 2L15 0ZM21 0L21 2L22 2L22 0ZM13 1L13 2L12 2L12 3L10 3L10 4L11 4L11 5L14 5L14 6L15 6L15 7L16 7L16 8L17 8L17 7L18 7L18 8L20 8L20 5L19 5L19 3L18 3L18 2L17 2L17 3L16 3L16 5L15 5L15 3L14 3L14 1ZM25 1L25 3L24 3L24 4L25 4L25 5L27 5L27 4L26 4L26 3L28 3L28 6L27 6L27 7L26 7L26 6L25 6L25 7L26 7L26 8L25 8L25 9L22 9L22 10L21 10L21 9L18 9L18 11L20 11L20 12L19 12L19 13L16 13L16 12L17 12L17 9L15 9L15 8L14 8L14 9L12 9L12 10L14 10L14 11L15 11L15 12L14 12L14 13L15 13L15 15L16 15L16 16L13 16L13 15L12 15L12 14L13 14L13 13L12 13L12 14L11 14L11 12L13 12L13 11L10 11L10 12L8 12L8 11L9 11L9 10L10 10L10 9L6 9L6 10L5 10L5 9L4 9L4 10L3 10L3 9L1 9L1 11L5 11L5 12L8 12L8 14L7 14L7 13L2 13L2 14L1 14L1 15L2 15L2 16L4 16L4 14L7 14L7 15L6 15L6 16L5 16L5 20L7 20L7 19L6 19L6 18L9 18L9 19L12 19L12 18L13 18L13 20L14 20L14 21L15 21L15 22L17 22L17 23L18 23L18 22L19 22L19 25L13 25L13 26L14 26L14 29L15 29L15 27L16 27L16 28L17 28L17 26L19 26L19 28L20 28L20 26L19 26L19 25L20 25L20 21L15 21L15 20L14 20L14 19L16 19L16 20L22 20L22 19L21 19L21 16L23 16L23 17L22 17L22 18L23 18L23 19L24 19L24 20L25 20L25 21L26 21L26 23L27 23L27 21L26 21L26 19L24 19L24 18L27 18L27 20L28 20L28 23L29 23L29 24L27 24L27 25L28 25L28 26L27 26L27 27L26 27L26 28L25 28L25 29L26 29L26 30L27 30L27 27L30 27L30 29L31 29L31 27L33 27L33 26L35 26L35 27L34 27L34 28L35 28L35 29L34 29L34 30L35 30L35 31L34 31L34 32L32 32L32 34L33 34L33 35L30 35L30 34L29 34L29 35L30 35L30 36L28 36L28 37L30 37L30 36L32 36L32 37L31 37L31 38L28 38L28 39L29 39L29 40L27 40L27 39L25 39L25 40L26 40L26 42L27 42L27 41L28 41L28 43L29 43L29 44L30 44L30 43L29 43L29 40L30 40L30 39L31 39L31 40L32 40L32 37L34 37L34 38L35 38L35 39L34 39L34 40L35 40L35 41L33 41L33 42L39 42L39 41L36 41L36 38L35 38L35 37L36 37L36 36L37 36L37 34L36 34L36 33L38 33L38 35L39 35L39 36L41 36L41 35L42 35L42 33L43 33L43 32L42 32L42 31L41 31L41 32L42 32L42 33L39 33L39 30L41 30L41 29L40 29L40 28L38 28L38 27L40 27L40 26L41 26L41 25L42 25L42 26L44 26L44 25L43 25L43 24L41 24L41 25L37 25L37 26L38 26L38 27L36 27L36 25L34 25L34 24L36 24L36 22L35 22L35 23L34 23L34 22L33 22L33 20L32 20L32 22L29 22L29 20L30 20L30 21L31 21L31 20L30 20L30 19L29 19L29 16L28 16L28 15L31 15L31 14L28 14L28 15L27 15L27 12L28 12L28 13L29 13L29 12L30 12L30 13L33 13L33 12L32 12L32 11L31 11L31 10L33 10L33 9L34 9L34 10L35 10L35 9L34 9L34 8L33 8L33 9L31 9L31 10L28 10L28 11L26 11L26 10L27 10L27 9L30 9L30 6L29 6L29 3L28 3L28 2L26 2L26 1ZM12 3L12 4L14 4L14 3ZM17 3L17 4L18 4L18 3ZM16 5L16 7L17 7L17 5ZM18 5L18 7L19 7L19 5ZM21 5L21 8L24 8L24 5ZM22 6L22 7L23 7L23 6ZM28 6L28 7L27 7L27 8L29 8L29 6ZM36 6L36 7L37 7L37 6ZM39 8L39 9L40 9L40 8ZM14 9L14 10L15 10L15 11L16 11L16 10L15 10L15 9ZM25 9L25 10L24 10L24 11L25 11L25 13L24 13L24 14L23 14L23 12L22 12L22 14L23 14L23 15L24 15L24 17L23 17L23 18L24 18L24 17L27 17L27 15L25 15L25 13L26 13L26 11L25 11L25 10L26 10L26 9ZM43 9L43 10L44 10L44 9ZM6 10L6 11L7 11L7 10ZM28 11L28 12L29 12L29 11ZM30 11L30 12L31 12L31 11ZM34 11L34 12L35 12L35 11ZM20 12L20 14L17 14L17 15L18 15L18 16L16 16L16 17L20 17L20 15L21 15L21 12ZM2 14L2 15L3 15L3 14ZM8 14L8 15L7 15L7 16L6 16L6 17L7 17L7 16L8 16L8 17L9 17L9 18L10 18L10 16L12 16L12 15L11 15L11 14ZM33 14L33 15L34 15L34 14ZM37 14L37 15L38 15L38 14ZM42 17L42 20L43 20L43 21L44 21L44 22L45 22L45 20L43 20L43 19L44 19L44 18L45 18L45 17ZM16 18L16 19L18 19L18 18ZM28 19L28 20L29 20L29 19ZM36 19L36 20L37 20L37 19ZM3 20L3 21L4 21L4 20ZM9 20L9 23L10 23L10 24L9 24L9 25L10 25L10 26L9 26L9 27L11 27L11 28L12 28L12 29L13 29L13 28L12 28L12 27L11 27L11 26L12 26L12 25L11 25L11 24L12 24L12 23L10 23L10 22L12 22L12 21L11 21L11 20ZM5 21L5 24L8 24L8 21ZM21 21L21 24L24 24L24 21ZM37 21L37 24L40 24L40 21ZM3 22L3 23L2 23L2 25L3 25L3 26L4 26L4 27L3 27L3 28L4 28L4 27L5 27L5 28L8 28L8 26L7 26L7 25L6 25L6 26L7 26L7 27L5 27L5 26L4 26L4 22ZM6 22L6 23L7 23L7 22ZM22 22L22 23L23 23L23 22ZM38 22L38 23L39 23L39 22ZM13 23L13 24L14 24L14 23ZM32 23L32 24L33 24L33 23ZM30 25L30 27L31 27L31 26L32 26L32 25ZM35 27L35 28L36 28L36 29L35 29L35 30L36 30L36 31L35 31L35 32L36 32L36 31L38 31L38 30L37 30L37 28L36 28L36 27ZM28 28L28 29L29 29L29 28ZM5 29L5 31L6 31L6 30L7 30L7 29ZM18 29L18 30L19 30L19 29ZM23 29L23 31L25 31L25 30L24 30L24 29ZM2 30L2 31L3 31L3 32L4 32L4 30ZM17 31L17 32L18 32L18 31ZM9 33L9 34L10 34L10 33ZM25 33L25 34L26 34L26 33ZM34 34L34 35L35 35L35 36L36 36L36 34ZM18 36L18 37L19 37L19 36ZM13 37L13 38L14 38L14 37ZM21 37L21 40L24 40L24 37ZM37 37L37 40L40 40L40 37ZM9 38L9 39L10 39L10 38ZM22 38L22 39L23 39L23 38ZM38 38L38 39L39 39L39 38ZM16 39L16 40L17 40L17 41L16 41L16 42L17 42L17 44L18 44L18 42L19 42L19 41L20 41L20 40L19 40L19 41L18 41L18 40L17 40L17 39ZM13 41L13 42L15 42L15 41ZM17 41L17 42L18 42L18 41ZM21 42L21 43L20 43L20 44L22 44L22 43L24 43L24 42ZM11 43L11 44L12 44L12 43ZM38 43L38 44L39 44L39 43ZM23 44L23 45L25 45L25 44ZM26 44L26 45L27 45L27 44ZM0 0L0 7L7 7L7 0ZM1 1L1 6L6 6L6 1ZM2 2L2 5L5 5L5 2ZM45 0L38 0L38 7L45 7ZM44 1L39 1L39 6L44 6ZM43 2L40 2L40 5L43 5ZM0 45L7 45L7 38L0 38ZM1 44L6 44L6 39L1 39ZM2 43L5 43L5 40L2 40Z" fill="#000000"/></g></g></svg>
