<?xml version="1.0" encoding="UTF-8"?>
<svg xmlns="http://www.w3.org/2000/svg" version="1.1" width="300" height="300" viewBox="0 0 300 300"><rect x="0" y="0" width="300" height="300" fill="#fefefe"/><g transform="scale(5.660)"><g transform="translate(4.000,4.000)"><path fill-rule="evenodd" d="M8 0L8 1L10 1L10 3L9 3L9 4L12 4L12 5L13 5L13 6L12 6L12 7L13 7L13 8L11 8L11 5L9 5L9 6L8 6L8 8L9 8L9 9L8 9L8 10L9 10L9 11L8 11L8 12L10 12L10 13L13 13L13 12L14 12L14 13L15 13L15 14L14 14L14 15L13 15L13 14L11 14L11 15L10 15L10 16L11 16L11 17L12 17L12 15L13 15L13 16L14 16L14 17L15 17L15 18L13 18L13 20L14 20L14 19L15 19L15 18L17 18L17 21L16 21L16 20L15 20L15 23L14 23L14 21L11 21L11 20L10 20L10 22L9 22L9 20L8 20L8 19L10 19L10 18L9 18L9 17L8 17L8 18L6 18L6 17L7 17L7 16L8 16L8 15L9 15L9 13L8 13L8 14L6 14L6 15L5 15L5 13L7 13L7 12L6 12L6 11L7 11L7 10L6 10L6 9L7 9L7 8L6 8L6 9L5 9L5 8L3 8L3 9L4 9L4 11L5 11L5 13L4 13L4 15L3 15L3 13L1 13L1 14L0 14L0 15L1 15L1 16L0 16L0 17L1 17L1 18L2 18L2 17L1 17L1 16L3 16L3 17L4 17L4 16L6 16L6 17L5 17L5 18L3 18L3 19L0 19L0 21L1 21L1 26L0 26L0 32L3 32L3 33L0 33L0 34L4 34L4 35L1 35L1 36L0 36L0 37L1 37L1 36L3 36L3 37L5 37L5 30L6 30L6 31L7 31L7 32L6 32L6 33L7 33L7 34L6 34L6 35L7 35L7 34L8 34L8 36L6 36L6 37L8 37L8 38L9 38L9 39L10 39L10 40L11 40L11 39L10 39L10 38L9 38L9 37L8 37L8 36L9 36L9 35L10 35L10 31L12 31L12 33L11 33L11 35L12 35L12 33L13 33L13 34L14 34L14 35L16 35L16 36L17 36L17 37L15 37L15 36L14 36L14 37L12 37L12 36L11 36L11 37L12 37L12 38L14 38L14 39L15 39L15 41L16 41L16 42L15 42L15 43L16 43L16 44L15 44L15 45L19 45L19 44L20 44L20 43L21 43L21 45L27 45L27 44L28 44L28 45L32 45L32 44L33 44L33 43L34 43L34 45L35 45L35 43L34 43L34 42L36 42L36 43L37 43L37 42L36 42L36 41L40 41L40 43L41 43L41 44L39 44L39 43L38 43L38 44L36 44L36 45L41 45L41 44L45 44L45 43L44 43L44 41L45 41L45 39L44 39L44 40L43 40L43 39L42 39L42 40L41 40L41 35L42 35L42 37L43 37L43 35L45 35L45 33L44 33L44 34L43 34L43 33L42 33L42 32L45 32L45 27L43 27L43 26L44 26L44 25L43 25L43 26L42 26L42 24L45 24L45 22L44 22L44 23L42 23L42 21L41 21L41 19L42 19L42 20L44 20L44 21L45 21L45 15L44 15L44 17L42 17L42 16L43 16L43 14L45 14L45 12L44 12L44 11L45 11L45 10L43 10L43 9L42 9L42 10L41 10L41 9L39 9L39 8L38 8L38 9L36 9L36 8L35 8L35 9L34 9L34 10L33 10L33 8L32 8L32 10L31 10L31 6L30 6L30 9L29 9L29 5L28 5L28 4L30 4L30 5L31 5L31 4L32 4L32 5L33 5L33 6L32 6L32 7L33 7L33 6L34 6L34 7L35 7L35 6L34 6L34 5L37 5L37 3L36 3L36 1L37 1L37 0L36 0L36 1L35 1L35 4L34 4L34 5L33 5L33 3L34 3L34 2L33 2L33 1L34 1L34 0L33 0L33 1L31 1L31 0L30 0L30 1L29 1L29 0L28 0L28 1L29 1L29 3L28 3L28 4L26 4L26 5L25 5L25 3L26 3L26 1L27 1L27 0L26 0L26 1L25 1L25 0L20 0L20 2L21 2L21 1L23 1L23 2L22 2L22 4L19 4L19 1L18 1L18 2L17 2L17 3L16 3L16 1L17 1L17 0L16 0L16 1L15 1L15 2L14 2L14 1L12 1L12 0ZM30 1L30 2L31 2L31 1ZM11 2L11 3L12 3L12 4L13 4L13 5L14 5L14 6L13 6L13 7L14 7L14 8L13 8L13 9L12 9L12 10L11 10L11 9L10 9L10 10L11 10L11 12L12 12L12 11L13 11L13 10L15 10L15 8L16 8L16 9L17 9L17 8L16 8L16 6L17 6L17 7L18 7L18 8L19 8L19 9L18 9L18 10L19 10L19 11L18 11L18 12L15 12L15 13L16 13L16 14L15 14L15 15L14 15L14 16L15 16L15 17L16 17L16 16L15 16L15 15L16 15L16 14L19 14L19 13L18 13L18 12L19 12L19 11L20 11L20 15L22 15L22 14L21 14L21 11L22 11L22 9L21 9L21 11L20 11L20 10L19 10L19 9L20 9L20 5L19 5L19 4L16 4L16 3L15 3L15 4L16 4L16 5L14 5L14 4L13 4L13 3L12 3L12 2ZM23 2L23 4L24 4L24 2ZM32 2L32 3L33 3L33 2ZM17 5L17 6L18 6L18 7L19 7L19 5ZM21 5L21 8L24 8L24 5ZM27 5L27 8L26 8L26 6L25 6L25 8L26 8L26 9L27 9L27 10L25 10L25 9L23 9L23 10L25 10L25 11L24 11L24 13L23 13L23 12L22 12L22 13L23 13L23 18L25 18L25 19L24 19L24 20L25 20L25 19L26 19L26 20L27 20L27 19L28 19L28 18L27 18L27 17L29 17L29 20L30 20L30 21L33 21L33 23L34 23L34 21L33 21L33 20L35 20L35 21L36 21L36 20L38 20L38 19L40 19L40 18L39 18L39 17L41 17L41 15L40 15L40 14L41 14L41 13L40 13L40 12L41 12L41 10L40 10L40 11L39 11L39 10L35 10L35 12L34 12L34 11L33 11L33 10L32 10L32 11L31 11L31 10L30 10L30 11L31 11L31 12L29 12L29 9L28 9L28 5ZM9 6L9 7L10 7L10 6ZM14 6L14 7L15 7L15 6ZM22 6L22 7L23 7L23 6ZM36 6L36 7L37 7L37 6ZM0 8L0 9L2 9L2 8ZM44 8L44 9L45 9L45 8ZM1 10L1 11L2 11L2 10ZM5 10L5 11L6 11L6 10ZM16 10L16 11L17 11L17 10ZM27 10L27 12L26 12L26 11L25 11L25 12L26 12L26 13L25 13L25 14L24 14L24 15L25 15L25 17L26 17L26 14L27 14L27 16L28 16L28 15L29 15L29 16L30 16L30 18L31 18L31 19L30 19L30 20L32 20L32 19L35 19L35 20L36 20L36 19L38 19L38 18L37 18L37 17L36 17L36 16L38 16L38 15L39 15L39 14L40 14L40 13L38 13L38 12L39 12L39 11L37 11L37 13L36 13L36 12L35 12L35 13L36 13L36 16L35 16L35 15L34 15L34 16L33 16L33 14L32 14L32 16L31 16L31 15L29 15L29 14L31 14L31 13L34 13L34 12L33 12L33 11L32 11L32 12L31 12L31 13L29 13L29 12L28 12L28 10ZM42 10L42 11L43 11L43 10ZM42 12L42 14L43 14L43 13L44 13L44 12ZM27 13L27 14L28 14L28 13ZM37 13L37 14L38 14L38 13ZM6 15L6 16L7 16L7 15ZM17 15L17 17L18 17L18 18L21 18L21 19L22 19L22 20L23 20L23 19L22 19L22 17L20 17L20 16L19 16L19 17L18 17L18 15ZM34 16L34 17L35 17L35 18L36 18L36 17L35 17L35 16ZM31 17L31 18L33 18L33 17ZM11 18L11 19L12 19L12 18ZM43 18L43 19L44 19L44 18ZM4 19L4 20L3 20L3 21L4 21L4 20L7 20L7 19ZM18 19L18 21L17 21L17 22L16 22L16 23L15 23L15 24L14 24L14 23L13 23L13 22L12 22L12 23L11 23L11 25L10 25L10 28L11 28L11 29L9 29L9 26L7 26L7 25L5 25L5 26L4 26L4 25L3 25L3 23L2 23L2 25L3 25L3 26L1 26L1 29L2 29L2 31L3 31L3 29L4 29L4 30L5 30L5 29L4 29L4 28L7 28L7 27L8 27L8 29L6 29L6 30L8 30L8 29L9 29L9 31L10 31L10 30L11 30L11 29L13 29L13 28L12 28L12 27L11 27L11 26L12 26L12 24L13 24L13 25L15 25L15 24L16 24L16 26L13 26L13 27L15 27L15 29L16 29L16 26L18 26L18 27L19 27L19 26L20 26L20 25L18 25L18 23L17 23L17 22L19 22L19 24L20 24L20 20L19 20L19 19ZM1 20L1 21L2 21L2 20ZM5 21L5 24L8 24L8 21ZM21 21L21 24L24 24L24 21ZM27 21L27 22L28 22L28 23L27 23L27 24L26 24L26 23L25 23L25 24L26 24L26 25L27 25L27 28L28 28L28 29L26 29L26 28L25 28L25 29L26 29L26 30L24 30L24 31L27 31L27 32L26 32L26 33L28 33L28 34L27 34L27 35L26 35L26 34L25 34L25 32L23 32L23 33L22 33L22 31L19 31L19 33L17 33L17 34L16 34L16 35L17 35L17 36L18 36L18 35L17 35L17 34L19 34L19 35L21 35L21 34L22 34L22 35L23 35L23 36L24 36L24 35L26 35L26 36L25 36L25 41L26 41L26 42L25 42L25 43L24 43L24 41L23 41L23 42L22 42L22 43L23 43L23 44L25 44L25 43L27 43L27 42L28 42L28 41L29 41L29 44L30 44L30 43L31 43L31 42L30 42L30 39L31 39L31 40L32 40L32 41L33 41L33 40L34 40L34 39L35 39L35 40L36 40L36 38L35 38L35 37L34 37L34 36L33 36L33 35L34 35L34 34L32 34L32 35L28 35L28 34L29 34L29 33L34 33L34 32L35 32L35 36L37 36L37 34L36 34L36 33L37 33L37 31L38 31L38 30L39 30L39 29L40 29L40 27L41 27L41 28L42 28L42 29L41 29L41 30L40 30L40 31L39 31L39 32L38 32L38 33L39 33L39 32L40 32L40 33L41 33L41 34L39 34L39 35L41 35L41 34L42 34L42 33L41 33L41 32L42 32L42 31L44 31L44 28L42 28L42 27L41 27L41 25L40 25L40 26L37 26L37 27L36 27L36 24L33 24L33 25L34 25L34 27L33 27L33 26L32 26L32 25L31 25L31 24L32 24L32 22L30 22L30 25L28 25L28 24L29 24L29 22L28 22L28 21ZM37 21L37 24L40 24L40 21ZM6 22L6 23L7 23L7 22ZM22 22L22 23L23 23L23 22ZM38 22L38 23L39 23L39 22ZM9 23L9 24L10 24L10 23ZM16 23L16 24L17 24L17 23ZM41 23L41 24L42 24L42 23ZM24 25L24 26L23 26L23 27L25 27L25 25ZM30 25L30 27L29 27L29 26L28 26L28 27L29 27L29 28L30 28L30 27L31 27L31 29L30 29L30 30L29 30L29 31L28 31L28 30L27 30L27 31L28 31L28 33L29 33L29 31L30 31L30 30L31 30L31 32L32 32L32 31L33 31L33 30L32 30L32 26L31 26L31 25ZM6 26L6 27L7 27L7 26ZM34 27L34 28L33 28L33 29L34 29L34 30L35 30L35 32L36 32L36 31L37 31L37 28L36 28L36 27ZM17 28L17 29L18 29L18 30L15 30L15 32L14 32L14 31L13 31L13 32L14 32L14 33L15 33L15 32L18 32L18 30L19 30L19 29L20 29L20 28L19 28L19 29L18 29L18 28ZM21 28L21 29L22 29L22 30L23 30L23 29L24 29L24 28L23 28L23 29L22 29L22 28ZM38 28L38 29L39 29L39 28ZM35 29L35 30L36 30L36 29ZM40 31L40 32L41 32L41 31ZM7 32L7 33L9 33L9 32ZM20 32L20 33L19 33L19 34L20 34L20 33L21 33L21 32ZM23 33L23 35L24 35L24 33ZM27 35L27 36L26 36L26 39L29 39L29 38L31 38L31 39L34 39L34 38L32 38L32 37L33 37L33 36L32 36L32 37L31 37L31 36L28 36L28 35ZM19 36L19 37L17 37L17 38L18 38L18 40L19 40L19 41L17 41L17 42L16 42L16 43L17 43L17 44L18 44L18 43L17 43L17 42L19 42L19 41L20 41L20 42L21 42L21 41L20 41L20 40L19 40L19 39L20 39L20 38L19 38L19 37L20 37L20 36ZM44 36L44 37L45 37L45 36ZM14 37L14 38L15 38L15 37ZM21 37L21 40L24 40L24 37ZM27 37L27 38L28 38L28 37ZM37 37L37 40L40 40L40 37ZM22 38L22 39L23 39L23 38ZM38 38L38 39L39 39L39 38ZM16 39L16 40L17 40L17 39ZM8 40L8 42L9 42L9 43L8 43L8 45L12 45L12 44L13 44L13 45L14 45L14 44L13 44L13 41L14 41L14 40L12 40L12 41L10 41L10 42L9 42L9 40ZM42 40L42 41L43 41L43 40ZM10 42L10 44L12 44L12 42ZM41 42L41 43L43 43L43 42ZM0 0L0 7L7 7L7 0ZM1 1L1 6L6 6L6 1ZM2 2L2 5L5 5L5 2ZM45 0L38 0L38 7L45 7ZM44 1L39 1L39 6L44 6ZM43 2L40 2L40 5L43 5ZM0 45L7 45L7 38L0 38ZM1 44L6 44L6 39L1 39ZM2 43L5 43L5 40L2 40Z" fill="#000000"/></g></g></svg>
