<?xml version="1.0" encoding="UTF-8"?>
<svg xmlns="http://www.w3.org/2000/svg" version="1.1" width="300" height="300" viewBox="0 0 300 300"><rect x="0" y="0" width="300" height="300" fill="#fefefe"/><g transform="scale(5.660)"><g transform="translate(4.000,4.000)"><path fill-rule="evenodd" d="M8 0L8 4L9 4L9 5L8 5L8 7L9 7L9 5L11 5L11 6L10 6L10 8L9 8L9 9L10 9L10 11L9 11L9 10L8 10L8 9L7 9L7 8L4 8L4 9L2 9L2 8L0 8L0 9L1 9L1 10L2 10L2 11L1 11L1 14L2 14L2 15L0 15L0 17L3 17L3 18L2 18L2 19L1 19L1 18L0 18L0 20L1 20L1 21L2 21L2 22L0 22L0 23L2 23L2 24L3 24L3 25L4 25L4 28L6 28L6 29L5 29L5 30L6 30L6 31L7 31L7 32L5 32L5 31L4 31L4 29L3 29L3 30L2 30L2 28L1 28L1 27L2 27L2 25L1 25L1 24L0 24L0 25L1 25L1 26L0 26L0 28L1 28L1 30L2 30L2 31L4 31L4 32L5 32L5 33L1 33L1 32L0 32L0 33L1 33L1 34L4 34L4 35L1 35L1 36L0 36L0 37L1 37L1 36L3 36L3 37L5 37L5 33L7 33L7 32L8 32L8 30L9 30L9 28L10 28L10 30L11 30L11 29L12 29L12 33L11 33L11 32L9 32L9 33L8 33L8 34L6 34L6 35L7 35L7 36L6 36L6 37L7 37L7 36L9 36L9 37L8 37L8 38L9 38L9 37L10 37L10 39L8 39L8 41L9 41L9 42L10 42L10 44L9 44L9 43L8 43L8 45L10 45L10 44L11 44L11 45L12 45L12 43L11 43L11 42L10 42L10 39L11 39L11 41L12 41L12 42L13 42L13 44L14 44L14 45L16 45L16 44L17 44L17 45L19 45L19 44L20 44L20 45L22 45L22 44L23 44L23 45L28 45L28 43L29 43L29 42L30 42L30 44L29 44L29 45L30 45L30 44L31 44L31 45L33 45L33 44L34 44L34 45L37 45L37 44L38 44L38 42L39 42L39 41L41 41L41 42L40 42L40 43L39 43L39 44L42 44L42 43L41 43L41 42L42 42L42 41L41 41L41 40L42 40L42 39L43 39L43 38L44 38L44 37L45 37L45 35L44 35L44 34L45 34L45 32L43 32L43 33L42 33L42 31L43 31L43 30L42 30L42 29L41 29L41 28L42 28L42 27L38 27L38 26L40 26L40 25L41 25L41 23L43 23L43 24L44 24L44 25L42 25L42 26L43 26L43 29L45 29L45 28L44 28L44 25L45 25L45 24L44 24L44 22L42 22L42 21L43 21L43 20L42 20L42 21L41 21L41 20L40 20L40 19L39 19L39 20L38 20L38 19L37 19L37 20L36 20L36 19L35 19L35 20L36 20L36 21L35 21L35 22L36 22L36 23L33 23L33 22L32 22L32 21L33 21L33 20L34 20L34 19L33 19L33 20L32 20L32 21L31 21L31 20L29 20L29 21L28 21L28 22L27 22L27 21L26 21L26 20L25 20L25 19L27 19L27 18L28 18L28 19L29 19L29 18L30 18L30 19L31 19L31 18L34 18L34 16L37 16L37 17L36 17L36 18L37 18L37 17L38 17L38 18L39 18L39 17L40 17L40 18L41 18L41 19L42 19L42 18L43 18L43 19L44 19L44 18L43 18L43 17L42 17L42 18L41 18L41 17L40 17L40 15L41 15L41 14L42 14L42 13L41 13L41 14L40 14L40 11L41 11L41 12L42 12L42 11L43 11L43 12L44 12L44 13L43 13L43 15L44 15L44 13L45 13L45 12L44 12L44 9L45 9L45 8L41 8L41 10L40 10L40 8L39 8L39 9L37 9L37 8L36 8L36 7L37 7L37 6L36 6L36 7L35 7L35 6L34 6L34 7L35 7L35 8L36 8L36 9L35 9L35 11L34 11L34 8L33 8L33 5L37 5L37 3L36 3L36 1L37 1L37 0L36 0L36 1L35 1L35 4L34 4L34 1L33 1L33 2L32 2L32 3L31 3L31 2L30 2L30 5L31 5L31 6L30 6L30 7L29 7L29 6L28 6L28 7L27 7L27 6L26 6L26 7L25 7L25 5L27 5L27 4L29 4L29 3L26 3L26 4L24 4L24 2L26 2L26 1L28 1L28 0L26 0L26 1L25 1L25 0L24 0L24 1L23 1L23 0L18 0L18 2L17 2L17 1L16 1L16 0L15 0L15 1L14 1L14 2L11 2L11 1L12 1L12 0ZM29 0L29 1L31 1L31 0ZM19 1L19 2L18 2L18 3L16 3L16 5L15 5L15 2L14 2L14 4L13 4L13 5L12 5L12 3L11 3L11 5L12 5L12 6L11 6L11 7L12 7L12 9L11 9L11 10L12 10L12 11L11 11L11 12L10 12L10 13L9 13L9 12L8 12L8 13L6 13L6 12L7 12L7 11L8 11L8 10L7 10L7 9L6 9L6 10L5 10L5 11L3 11L3 12L5 12L5 13L4 13L4 15L2 15L2 16L5 16L5 17L4 17L4 20L3 20L3 19L2 19L2 20L3 20L3 22L4 22L4 20L7 20L7 19L8 19L8 20L9 20L9 22L11 22L11 23L9 23L9 24L10 24L10 25L9 25L9 27L8 27L8 25L6 25L6 26L7 26L7 27L6 27L6 28L7 28L7 27L8 27L8 28L9 28L9 27L12 27L12 29L13 29L13 30L15 30L15 31L16 31L16 30L17 30L17 31L18 31L18 32L20 32L20 33L15 33L15 34L13 34L13 33L12 33L12 34L13 34L13 36L12 36L12 35L10 35L10 34L11 34L11 33L10 33L10 34L8 34L8 35L9 35L9 36L10 36L10 37L13 37L13 38L12 38L12 40L13 40L13 41L16 41L16 42L18 42L18 44L19 44L19 43L21 43L21 44L22 44L22 43L23 43L23 44L24 44L24 43L25 43L25 42L26 42L26 41L25 41L25 42L23 42L23 41L22 41L22 43L21 43L21 42L20 42L20 40L19 40L19 38L20 38L20 37L18 37L18 36L17 36L17 34L19 34L19 35L20 35L20 36L22 36L22 35L23 35L23 36L26 36L26 37L25 37L25 38L26 38L26 39L28 39L28 41L27 41L27 42L29 42L29 34L26 34L26 33L25 33L25 35L23 35L23 34L22 34L22 33L23 33L23 32L27 32L27 30L25 30L25 29L26 29L26 28L28 28L28 30L29 30L29 27L28 27L28 26L30 26L30 29L31 29L31 31L32 31L32 29L31 29L31 28L33 28L33 33L35 33L35 34L34 34L34 35L35 35L35 36L33 36L33 38L32 38L32 37L31 37L31 36L32 36L32 35L33 35L33 34L32 34L32 32L29 32L29 31L28 31L28 33L31 33L31 34L30 34L30 37L31 37L31 38L32 38L32 39L30 39L30 40L31 40L31 41L32 41L32 42L33 42L33 41L32 41L32 39L33 39L33 40L34 40L34 43L36 43L36 44L37 44L37 41L36 41L36 40L35 40L35 39L36 39L36 37L35 37L35 36L36 36L36 35L37 35L37 36L38 36L38 35L39 35L39 32L38 32L38 31L40 31L40 30L41 30L41 31L42 31L42 30L41 30L41 29L40 29L40 28L38 28L38 27L37 27L37 26L38 26L38 25L37 25L37 26L36 26L36 27L35 27L35 25L36 25L36 24L35 24L35 25L34 25L34 24L33 24L33 25L32 25L32 26L30 26L30 25L31 25L31 24L32 24L32 22L31 22L31 23L30 23L30 22L29 22L29 23L28 23L28 25L27 25L27 24L26 24L26 23L25 23L25 24L26 24L26 25L27 25L27 27L26 27L26 26L25 26L25 27L24 27L24 25L23 25L23 28L22 28L22 29L18 29L18 30L17 30L17 29L16 29L16 28L20 28L20 27L21 27L21 26L22 26L22 25L18 25L18 26L17 26L17 25L16 25L16 24L18 24L18 23L19 23L19 24L20 24L20 22L19 22L19 21L20 21L20 20L22 20L22 19L20 19L20 18L21 18L21 17L22 17L22 16L21 16L21 15L20 15L20 14L22 14L22 15L23 15L23 19L25 19L25 17L27 17L27 16L28 16L28 18L29 18L29 14L28 14L28 13L30 13L30 12L31 12L31 14L30 14L30 16L31 16L31 17L32 17L32 16L33 16L33 14L34 14L34 15L37 15L37 16L39 16L39 15L40 15L40 14L39 14L39 15L37 15L37 14L38 14L38 13L39 13L39 11L38 11L38 10L36 10L36 12L31 12L31 11L33 11L33 9L32 9L32 6L31 6L31 8L29 8L29 7L28 7L28 9L27 9L27 10L28 10L28 9L32 9L32 10L31 10L31 11L30 11L30 12L29 12L29 11L28 11L28 12L27 12L27 11L26 11L26 9L21 9L21 11L20 11L20 10L19 10L19 11L17 11L17 12L19 12L19 11L20 11L20 13L18 13L18 14L17 14L17 13L16 13L16 14L15 14L15 15L14 15L14 14L13 14L13 15L12 15L12 14L10 14L10 13L11 13L11 12L14 12L14 10L15 10L15 11L16 11L16 10L18 10L18 9L16 9L16 8L15 8L15 7L16 7L16 5L17 5L17 7L18 7L18 6L19 6L19 8L20 8L20 6L19 6L19 5L20 5L20 4L23 4L23 3L21 3L21 2L20 2L20 1ZM9 3L9 4L10 4L10 3ZM18 3L18 4L20 4L20 3ZM32 3L32 4L31 4L31 5L32 5L32 4L33 4L33 3ZM14 5L14 7L15 7L15 5ZM21 5L21 8L24 8L24 5ZM12 6L12 7L13 7L13 6ZM22 6L22 7L23 7L23 6ZM26 7L26 8L27 8L27 7ZM14 8L14 9L12 9L12 10L14 10L14 9L15 9L15 10L16 10L16 9L15 9L15 8ZM42 9L42 10L41 10L41 11L42 11L42 10L43 10L43 9ZM6 10L6 11L5 11L5 12L6 12L6 11L7 11L7 10ZM22 10L22 14L23 14L23 15L24 15L24 17L25 17L25 16L27 16L27 15L28 15L28 14L27 14L27 12L25 12L25 11L23 11L23 10ZM24 12L24 13L23 13L23 14L24 14L24 15L25 15L25 12ZM2 13L2 14L3 14L3 13ZM32 13L32 14L33 14L33 13ZM35 13L35 14L37 14L37 13ZM6 14L6 15L5 15L5 16L6 16L6 17L5 17L5 19L7 19L7 18L8 18L8 19L10 19L10 17L11 17L11 18L13 18L13 16L14 16L14 17L15 17L15 18L14 18L14 21L13 21L13 19L12 19L12 21L11 21L11 22L13 22L13 23L14 23L14 25L13 25L13 24L11 24L11 25L10 25L10 26L11 26L11 25L12 25L12 26L13 26L13 28L14 28L14 29L15 29L15 30L16 30L16 29L15 29L15 28L16 28L16 26L15 26L15 27L14 27L14 25L15 25L15 23L14 23L14 22L16 22L16 23L18 23L18 22L17 22L17 21L19 21L19 20L20 20L20 19L18 19L18 17L19 17L19 16L17 16L17 18L16 18L16 17L15 17L15 16L14 16L14 15L13 15L13 16L12 16L12 17L11 17L11 16L10 16L10 17L9 17L9 18L8 18L8 17L7 17L7 16L8 16L8 15L9 15L9 14L8 14L8 15L7 15L7 14ZM16 14L16 15L17 15L17 14ZM6 15L6 16L7 16L7 15ZM31 15L31 16L32 16L32 15ZM44 16L44 17L45 17L45 16ZM6 17L6 18L7 18L7 17ZM15 20L15 21L16 21L16 20ZM5 21L5 24L8 24L8 21ZM21 21L21 24L24 24L24 21ZM37 21L37 24L40 24L40 21ZM6 22L6 23L7 23L7 22ZM22 22L22 23L23 23L23 22ZM38 22L38 23L39 23L39 22ZM3 23L3 24L4 24L4 23ZM29 23L29 25L30 25L30 23ZM33 25L33 26L32 26L32 27L33 27L33 28L34 28L34 29L35 29L35 27L33 27L33 26L34 26L34 25ZM25 27L25 28L23 28L23 29L25 29L25 28L26 28L26 27ZM36 27L36 28L37 28L37 27ZM6 29L6 30L7 30L7 29ZM38 29L38 30L36 30L36 32L37 32L37 31L38 31L38 30L40 30L40 29ZM20 30L20 31L21 31L21 33L22 33L22 31L23 31L23 30ZM24 30L24 31L25 31L25 30ZM34 31L34 32L35 32L35 31ZM40 32L40 34L42 34L42 36L41 36L41 38L43 38L43 37L44 37L44 35L43 35L43 34L42 34L42 33L41 33L41 32ZM36 33L36 34L35 34L35 35L36 35L36 34L37 34L37 35L38 35L38 33ZM31 34L31 35L32 35L32 34ZM14 35L14 37L15 37L15 38L13 38L13 39L14 39L14 40L16 40L16 41L19 41L19 40L17 40L17 39L18 39L18 38L17 38L17 39L16 39L16 37L17 37L17 36L16 36L16 37L15 37L15 35ZM26 35L26 36L27 36L27 37L26 37L26 38L27 38L27 37L28 37L28 35ZM21 37L21 40L24 40L24 37ZM37 37L37 40L40 40L40 37ZM22 38L22 39L23 39L23 38ZM38 38L38 39L39 39L39 38ZM44 39L44 40L43 40L43 41L44 41L44 43L45 43L45 41L44 41L44 40L45 40L45 39ZM14 42L14 44L16 44L16 43L15 43L15 42ZM26 43L26 44L27 44L27 43ZM44 44L44 45L45 45L45 44ZM0 0L0 7L7 7L7 0ZM1 1L1 6L6 6L6 1ZM2 2L2 5L5 5L5 2ZM45 0L38 0L38 7L45 7ZM44 1L39 1L39 6L44 6ZM43 2L40 2L40 5L43 5ZM0 45L7 45L7 38L0 38ZM1 44L6 44L6 39L1 39ZM2 43L5 43L5 40L2 40Z" fill="#000000"/></g></g></svg>
